<?xml version="1.0" standalone="no"?>
<!DOCTYPE svg PUBLIC "-//W3C//DTD SVG 20010904//EN"
 "http://www.w3.org/TR/2001/REC-SVG-20010904/DTD/svg10.dtd">
<svg version="1.0" xmlns="http://www.w3.org/2000/svg"
 width="512.000000pt" height="512.000000pt" viewBox="0 0 512.000000 512.000000"
 preserveAspectRatio="xMidYMid meet">
<metadata>
Created by potrace 1.14, written by Peter Selinger 2001-2017
</metadata>
<g transform="translate(0.000000,512.000000) scale(0.100000,-0.100000)"
fill="#000000" stroke="none">
<path d="M1635 5114 c-70 -17 -123 -40 -196 -84 -72 -44 -110 -57 -143 -51
-48 10 -179 -1 -226 -17 -133 -47 -245 -126 -279 -199 -27 -57 -31 -71 -34
-124 -2 -31 -7 -61 -11 -68 -5 -7 -49 -32 -100 -55 -50 -24 -113 -60 -141 -81
-88 -66 -204 -222 -231 -309 -14 -49 -17 -74 -28 -246 -3 -47 -19 -120 -42
-195 -33 -104 -38 -133 -38 -220 0 -55 3 -116 7 -137 16 -86 76 -229 127 -302
66 -97 335 -311 465 -372 71 -33 133 -35 197 -9 34 14 74 19 188 20 154 1 185
8 282 56 32 16 67 29 78 29 12 0 70 -11 129 -25 123 -28 149 -33 174 -34 24
-1 22 -13 -19 -137 -52 -156 -41 -217 55 -299 19 -16 63 -56 98 -88 60 -54 67
-58 106 -55 40 3 42 1 53 -32 7 -19 14 -53 17 -75 21 -141 21 -132 -3 -140
-24 -8 -60 -60 -60 -88 0 -46 45 -94 95 -101 17 -2 20 -12 23 -71 3 -66 -13
-174 -26 -176 -4 0 -16 -2 -27 -3 -78 -10 -97 -41 -101 -161 -4 -142 35 -265
140 -440 36 -58 60 -127 70 -200 13 -86 20 -112 41 -160 12 -28 34 -70 49 -93
15 -24 36 -80 47 -125 33 -133 68 -171 204 -220 183 -65 339 -7 640 237 55 45
140 110 188 145 199 143 272 314 243 569 -11 94 -3 105 115 167 204 109 252
218 213 480 -18 123 -5 476 20 560 19 60 39 84 131 160 138 114 246 227 376
390 107 136 151 232 181 397 20 109 16 180 -13 222 -49 72 -111 79 -278 31
-182 -51 -184 -51 -268 43 -52 57 -93 91 -161 130 -76 45 -94 60 -110 95 -18
39 -49 147 -58 207 -3 14 -14 52 -26 85 -18 50 -37 75 -118 155 -117 117 -136
151 -130 240 11 186 7 232 -28 302 -44 90 -71 103 -201 94 -53 -4 -114 -9
-136 -12 -114 -16 -208 -8 -339 29 -149 42 -239 48 -296 19 -45 -22 -83 -93
-76 -139 3 -18 3 -33 0 -33 -2 0 -31 14 -64 30 -33 17 -65 30 -72 30 -20 0
-90 39 -120 67 -17 16 -32 47 -42 90 -36 144 -105 216 -258 275 -51 19 -208
33 -253 22z"/>
<path d="M4675 1757 c-64 -21 -99 -54 -175 -163 -45 -66 -53 -72 -112 -94 -68
-24 -102 -49 -124 -92 -14 -26 -39 -134 -48 -201 -8 -62 -26 -127 -50 -180
-120 -273 -47 -504 162 -509 99 -2 155 17 224 80 49 44 75 84 140 215 27 55
72 129 99 165 185 241 221 563 80 715 -51 55 -137 83 -196 64z"/>
</g>
</svg>
